<svg id="Icons" xmlns="http://www.w3.org/2000/svg" viewBox="0 0 512 512"><defs><style>.cls-3{fill:#7a2b13}.cls-4{fill:#8c4735}.cls-5{fill:#a05740}.cls-6{fill:#b76049}.cls-7{fill:#c2aacf}.cls-8{fill:#decee5}.cls-9{fill:#f4e6f4}.cls-10{fill:#fff}</style></defs><circle cx="256" cy="256" r="255.98" style="fill:#15be79"/><path d="M0 255.76A255.63 255.63 0 0 1 103.44 50.44c113.54-84.25 273.87-60.52 358.12 53a254.76 254.76 0 0 1 49.93 136 76.89 76.89 0 0 0-14.24 6.88c-23.84 14.74-42 41.9-69.91 44.44-19.15 1.75-37.29-9.24-51.1-22.62s-24.87-29.51-39.4-42.12a112.53 112.53 0 0 0-157.7 10c-14.17 15.89-26.53 37.44-47.68 40-28.75 3.44-51.22-31.63-80-28.95-9.3.87-17.72 5.66-26.73 8a54.5 54.5 0 0 1-24.73.69z" style="fill:#14a36d"/><path class="cls-3" d="M429.85 203.23v101.1a19.73 19.73 0 0 1-19.73 19.73h-61.71V298h46.89a8.44 8.44 0 0 0 8.45-8.45v-71.5a8.45 8.45 0 0 0-8.45-8.45h-46.89v-26.1h61.71a19.73 19.73 0 0 1 19.73 19.73z"/><path class="cls-4" d="M429.85 203.23v90.18a19.73 19.73 0 0 1-19.73 19.73h-38.35a6 6 0 0 1-6-5.95v-3.27a6 6 0 0 1 6-6H404a8.45 8.45 0 0 0 8.45-8.45v-82.35a8.45 8.45 0 0 0-8.45-8.45h-32.23a6 6 0 0 1-6-5.95v-3.26a6 6 0 0 1 6-6h38.35a19.74 19.74 0 0 1 19.73 19.77z"/><ellipse class="cls-5" cx="422.38" cy="221.57" rx="7.47" ry="16.44"/><ellipse class="cls-5" cx="422.38" cy="254.48" rx="5.18" ry="11.4"/><rect class="cls-3" x="140.79" y="116.11" width="207.62" height="285.34" rx="16.5"/><path class="cls-4" d="M348.41 132.61V378H181.48V116.11h150.43a16.5 16.5 0 0 1 16.5 16.5zM181.48 116.11v285.34h-24.19a16.5 16.5 0 0 1-16.5-16.5V132.61a16.5 16.5 0 0 1 16.5-16.5z"/><path class="cls-4" d="M348.41 132.61V385a16.5 16.5 0 0 1-16.5 16.5h-24.19V116.11h24.19a16.5 16.5 0 0 1 16.5 16.5zM196.43 116.11h40.69v285.34h-40.69zM252.08 116.11h40.69v285.34h-40.69z"/><path class="cls-5" d="M164.25 116.11h17.23V378h-.73a16.5 16.5 0 0 1-16.5-16.5zM196.43 116.11h40.69v261.88h-40.69zM252.08 116.11h40.69v261.88h-40.69zM348.41 132.61V378h-40.69V116.11h24.19a16.5 16.5 0 0 1 16.5 16.5z"/><ellipse class="cls-6" cx="330.23" cy="196.45" rx="13.23" ry="31.5"/><ellipse class="cls-6" cx="330.23" cy="257.05" rx="8.4" ry="19.1"/><ellipse class="cls-6" cx="274.54" cy="216.45" rx="13.23" ry="31.5"/><ellipse class="cls-6" cx="274.54" cy="277.05" rx="8.4" ry="19.1"/><ellipse class="cls-6" cx="218.89" cy="236.45" rx="13.23" ry="31.5"/><ellipse class="cls-6" cx="218.89" cy="297.05" rx="8.4" ry="19.1"/><rect class="cls-7" x="135.38" y="156.11" width="218.44" height="27.39" rx="4.62"/><path class="cls-8" d="M353.82 160.73v15.15H153a4.62 4.62 0 0 1-4.62-4.62v-15.15H349.2a4.62 4.62 0 0 1 4.62 4.62z"/><ellipse class="cls-9" cx="284.4" cy="165.02" rx="18.43" ry="6.76"/><ellipse class="cls-9" cx="319.84" cy="165.02" rx="11.17" ry="4.29"/><rect class="cls-7" x="135.38" y="324.06" width="218.44" height="27.39" rx="4.62"/><path class="cls-8" d="M353.82 328.68v15.15H153a4.62 4.62 0 0 1-4.62-4.62v-15.15H349.2a4.62 4.62 0 0 1 4.62 4.62z"/><ellipse class="cls-9" cx="284.4" cy="332.97" rx="18.43" ry="6.76"/><ellipse class="cls-9" cx="319.84" cy="332.97" rx="11.17" ry="4.29"/><path class="cls-10" d="M157 116.09h175.31a24 24 0 0 0-32.4-22.58 24.11 24.11 0 0 0-48-.51A37.39 37.39 0 0 0 210 90.23 18.66 18.66 0 0 0 172.76 92a18.26 18.26 0 0 0 .85 5.56A18.67 18.67 0 0 0 157 116.09z"/><path class="cls-10" d="M147.12 265.71a21.62 21.62 0 0 0 21.62-21.62l-10.89-130.63a10.75 10.75 0 0 0-10.73-10.3 10.75 10.75 0 0 0-10.74 10.3l-10.89 130.63a21.62 21.62 0 0 0 21.63 21.62z"/><rect class="cls-10" x="123.8" y="282.74" width="46.63" height="55.27" rx="23.31" transform="rotate(180 147.115 310.38)"/></svg>